<svg width="25" height="48" viewBox="0 0 25 48" fill="none" xmlns="http://www.w3.org/2000/svg">
<g clip-path="url(#clip0_2_57)">
<path d="M23.5252 0C24.6126 0.552806 25.0217 1.50551 24.9894 2.79931C24.9464 4.81059 24.9787 6.82186 24.9787 8.83313C24.9787 10.5504 24.1173 11.4795 22.5346 11.4913C21.275 11.5031 20.0153 11.4913 18.7663 11.5266C17.7866 11.5501 17.6143 11.7265 17.5928 12.7969C17.5605 13.9025 17.582 15.0081 17.582 16.1607C17.7543 16.1725 17.905 16.1843 18.0558 16.1843C19.4877 16.1843 20.9197 16.1843 22.3409 16.1843C23.8697 16.196 24.7203 17.137 24.731 18.8072C24.731 21.1007 24.731 23.3943 24.731 25.6996C24.731 27.3345 23.8482 28.2872 22.3516 28.2989C20.7797 28.2989 19.2078 28.2989 17.5605 28.2989C17.5605 28.5224 17.5605 28.7106 17.5605 28.9106C17.5605 34.3798 17.5713 39.8373 17.5497 45.3065C17.5497 45.8476 17.4205 46.4357 17.1944 46.9061C16.8499 47.6354 16.2039 47.9765 15.4502 47.9882C13.0816 48 10.7022 48.0118 8.33353 47.9882C7.19227 47.9765 6.35248 47.0473 6.26635 45.8005C6.25558 45.5888 6.24481 45.3653 6.24481 45.1419C6.24481 39.7432 6.24481 34.3328 6.24481 28.9341C6.24481 28.7341 6.24481 28.5342 6.24481 28.2989C4.96359 28.2989 3.7362 28.2989 2.50881 28.2989C2.25041 28.2989 1.99201 28.2872 1.74438 28.2401C0.764622 28.0519 0.0324947 27.1816 0.0217281 26.0995C0.000194959 23.5354 -0.0105716 20.9713 0.0217281 18.419C0.0324947 17.2075 0.904588 16.2666 2.02431 16.2196C3.24094 16.1843 4.45756 16.2078 5.67418 16.196C5.84645 16.196 6.01871 16.196 6.23405 16.196C6.24481 15.9961 6.25558 15.8314 6.25558 15.6667C6.26635 14.2671 6.23405 12.8557 6.29865 11.456C6.43861 8.55085 7.2461 5.9162 9.04412 3.71674C10.7237 1.65842 12.8555 0.541044 15.321 0.105856C15.4287 0.0823328 15.5364 0.0470473 15.644 0.0117618C18.2711 0 20.8981 0 23.5252 0ZM2.59494 25.4761C2.79951 25.4761 2.95024 25.4761 3.11174 25.4761C4.54369 25.4761 5.97565 25.4643 7.39684 25.4879C8.17203 25.4996 8.71036 26.0407 8.80726 26.8875C8.82879 27.0875 8.82879 27.2874 8.82879 27.4991C8.82879 33.1801 8.82879 38.8728 8.82879 44.5538C8.82879 44.7537 8.82879 44.9419 8.82879 45.1419C10.9175 45.1419 12.9309 45.1419 14.9765 45.1419C14.9765 44.9066 14.9765 44.6949 14.9765 44.495C14.9765 38.7787 14.9765 33.0625 14.9765 27.3462C14.9765 26.0524 15.5041 25.4879 16.6776 25.4879C18.3357 25.4879 19.9937 25.4879 21.6518 25.4879C21.8025 25.4879 21.9533 25.4879 22.1148 25.4879C22.1148 23.3002 22.1148 21.1713 22.1148 19.0189C21.921 19.0189 21.7702 19.0189 21.6087 19.0189C19.9399 19.0189 18.2603 19.0189 16.5915 19.0189C15.6333 19.0189 15.0088 18.4661 14.998 17.4663C14.9765 15.7138 14.9765 13.9613 15.0519 12.2205C15.1165 10.7621 15.7409 9.60941 17.0545 9.06837C17.539 8.86841 18.0773 8.7508 18.5941 8.72727C19.703 8.66846 20.8228 8.69199 21.9425 8.68023C22.0932 8.68023 22.244 8.6567 22.3839 8.6567C22.3839 6.65719 22.3839 4.71649 22.3839 2.6817C20.2414 2.72874 18.1203 2.70522 16.0101 2.85812C14.3736 2.97574 12.877 3.68145 11.6173 4.88116C9.77625 6.64543 8.99029 8.96251 8.87186 11.5619C8.78573 13.4202 8.83956 15.2786 8.82879 17.137C8.81803 18.4073 8.2797 19.0071 7.11691 19.0071C5.76032 19.0071 4.40373 19.0071 3.04714 19.0071C2.89641 19.0071 2.74567 19.0189 2.59494 19.0306C2.59494 21.1948 2.59494 23.3002 2.59494 25.4761Z" fill="black"/>
</g>
<defs>
<clipPath id="clip0_2_57">
<rect width="25" height="48" fill="white"/>
</clipPath>
</defs>
</svg>
