<svg width="62" height="62" viewBox="0 0 62 62" fill="none" xmlns="http://www.w3.org/2000/svg">
<g clip-path="url(#clip0_2_45)">
<path d="M12 57.5999H8.80002C6.10003 57.5999 3.90002 55.3999 3.90002 52.6999V49.3999C3.90002 48.2999 3.00002 47.3999 1.90002 47.3999C0.800024 47.3999 -0.0999756 48.2999 -0.0999756 49.3999V52.6999C-0.0999756 57.5999 3.90002 61.4999 8.70002 61.4999H12C13.1 61.4999 14 60.5999 14 59.4999C14 58.3999 13.1 57.5999 12 57.5999Z" fill="black"/>
<path d="M59.6 47.5C58.5 47.5 57.6 48.4 57.6 49.5V52.8C57.6 55.5 55.4 57.7 52.7 57.7H49.5C48.4 57.7 47.5 58.6 47.5 59.7C47.5 60.8 48.4 61.7 49.5 61.7H52.7C57.6 61.7 61.5 57.7 61.5 52.9V49.6C61.6 48.4 60.7 47.5 59.6 47.5Z" fill="black"/>
<path d="M52.7 0H48.7C47.6 0 46.7 0.9 46.7 2C46.7 3.1 47.6 4 48.7 4H52.7C55.4 4 57.6 6.2 57.6 8.9V13C57.6 14.1 58.5 15 59.6 15C60.7 15 61.6 14.1 61.6 13V8.8C61.6 4 57.6 0 52.7 0Z" fill="black"/>
<path d="M12.1 0H8.8C4 0 0 4 0 8.8V12C0 13.1 0.9 14 2 14C3.1 14 4 13.1 4 12V8.8C4 6.1 6.2 3.9 8.9 3.9H12.2C13.3 3.9 14.2 3 14.2 1.9C14.2 0.8 13.2 0 12.1 0Z" fill="black"/>
<path d="M47.6 36.4998C47.7 36.0998 47.6 35.6998 47.3 35.3998L19.9 10.2998C19.6 9.99985 19.2 9.99985 18.8 10.0998C18.4 10.2998 18.2 10.5998 18.2 10.9998V48.1998C18.2 48.5998 18.4 48.9998 18.8 49.0998C19.2 49.2998 19.6 49.1998 19.9 48.8998L27.3 41.8998L31.9 52.2998C32 52.5998 32.3 52.7999 32.6 52.8998C32.7 52.8998 32.7 52.8998 32.8 52.8998C33.1 52.8998 33.3 52.7998 33.5 52.5998C35.3 50.7998 36.5 50.5998 37.8 50.4998C38.7 50.3998 39.6 50.2998 40.6 49.6998C41 49.4998 41.2 48.8998 41 48.3998L36.4 37.8998L46.6 37.1998C47.1 37.0998 47.4 36.8998 47.6 36.4998ZM31.5 34.5998C31.3 34.8998 31.3 35.1998 31.4 35.4998L36.3 46.7998C36.2 46.7998 36.1 46.7999 36 46.8998C35.4 46.9998 34.8 47.0998 34 47.6998L29.1 36.5998C29 36.1998 28.8 35.9998 28.5 35.9998C28.4 35.9998 28.4 35.9998 28.3 35.9998C28 35.9998 27.8 36.0998 27.6 36.2998L22 41.4998V17.0998L40 33.6998L32.3 34.1998C32 34.1998 31.7 34.3998 31.5 34.5998Z" fill="black"/>
</g>
<defs>
<clipPath id="clip0_2_45">
<rect width="61.6" height="61.6" fill="white"/>
</clipPath>
</defs>
</svg>
