<svg width="38" height="39" viewBox="0 0 38 39" fill="none" xmlns="http://www.w3.org/2000/svg">
<g clip-path="url(#clip0_2_60)">
<path d="M28.9466 6.104C27.6636 6.104 26.6204 7.17469 26.6204 8.49151C26.6204 9.80833 27.6636 10.879 28.9466 10.879C30.2297 10.879 31.2729 9.80833 31.2729 8.49151C31.2729 7.17469 30.2297 6.104 28.9466 6.104Z" fill="black"/>
<path d="M27.9154 39H10.0846C4.52067 39 0 34.3604 0 28.65V10.35C0 4.63963 4.52067 0 10.0846 0H27.9154C33.4793 0 38 4.63963 38 10.35V28.65C38 34.3604 33.4793 39 27.9154 39ZM10.0846 3.07668C6.17545 3.07668 2.99779 6.33796 2.99779 10.35V28.65C2.99779 32.662 6.17545 35.9233 10.0846 35.9233H27.9154C31.8246 35.9233 35.0022 32.662 35.0022 28.65V10.35C35.0022 6.33796 31.8246 3.07668 27.9154 3.07668H10.0846Z" fill="black"/>
<path d="M19.1739 29.7821C13.7898 29.7821 9.40106 25.2902 9.40106 19.7521C9.40106 14.2141 13.7778 9.72217 19.1739 9.72217C24.5699 9.72217 28.9467 14.2141 28.9467 19.7521C28.9467 25.2902 24.5579 29.7821 19.1739 29.7821ZM19.1739 12.8112C15.4446 12.8112 12.3989 15.9248 12.3989 19.7645C12.3989 23.6041 15.4326 26.7177 19.1739 26.7177C22.9151 26.7177 25.9489 23.6041 25.9489 19.7645C25.9489 15.9248 22.9031 12.8112 19.1739 12.8112Z" fill="black"/>
</g>
<defs>
<clipPath id="clip0_2_60">
<rect width="38" height="39" fill="white"/>
</clipPath>
</defs>
</svg>
