<svg width="41" height="35" viewBox="0 0 41 35" fill="none" xmlns="http://www.w3.org/2000/svg">
<path d="M0 15.5173C0.235457 14.996 0.684966 14.7457 1.20939 14.5476C12.1689 10.387 23.1069 6.22648 34.0557 2.06593C35.7467 1.42985 37.427 0.793777 39.1073 0.136848C39.6424 -0.0717014 40.124 -0.0612739 40.5628 0.303687C41.0016 0.668647 41.0659 1.14831 40.9481 1.69054C39.8029 7.20666 38.6792 12.7228 37.5447 18.2389C36.4744 23.4422 35.4042 28.6351 34.3339 33.8384C34.1199 34.8811 33.2102 35.2669 32.2362 34.7351C28.8435 32.8582 25.4508 30.9708 22.058 29.0939C21.9403 29.0313 21.8226 28.9687 21.6728 28.8958C21.1055 29.6257 20.549 30.3556 19.9817 31.0751C19.1255 32.1908 18.2693 33.2961 17.4024 34.4119C16.9957 34.9332 16.4927 35.1001 15.9362 34.9437C15.3903 34.7873 15.0371 34.3493 15.0371 33.7445C15.0264 32.4307 15.0264 31.1168 15.0264 29.8029C15.0264 27.3942 15.0371 24.9959 15.0157 22.5871C15.0157 22.0345 15.2084 21.6278 15.6365 21.2629C17.1456 19.9803 18.6332 18.6768 20.1316 17.3838C20.2279 17.3004 20.3135 17.217 20.367 17.0815C20.2386 17.144 20.1209 17.2066 19.9924 17.2691C17.4024 18.7394 14.8017 20.1888 12.2224 21.68C11.5909 22.0449 11.0344 22.0449 10.3815 21.7217C7.29917 20.1784 4.17401 18.6769 1.04885 17.1649C0.588643 16.9459 0.214052 16.6852 0 16.216C0 15.9866 0 15.7467 0 15.5173ZM4.49509 15.997C4.59141 16.0596 4.63422 16.0908 4.68774 16.1117C6.79615 17.1336 8.90456 18.1659 11.0237 19.1774C11.1628 19.2399 11.4197 19.2191 11.5588 19.1357C13.5281 18.0408 15.4867 16.925 17.4452 15.8197C21.8333 13.338 26.2214 10.8458 30.6094 8.35368C31.3265 7.94701 31.9794 8.05128 32.4182 8.63522C32.857 9.21916 32.7606 9.8448 32.1399 10.3975C31.7653 10.7311 31.38 11.0544 31.0054 11.3776C26.6281 15.1524 22.2507 18.9271 17.884 22.7123C17.7449 22.827 17.6379 23.0564 17.6379 23.2336C17.6165 25.34 17.6272 27.4463 17.6272 29.5527C17.6272 29.6465 17.6486 29.7404 17.6593 29.9072C18.5155 28.8019 19.3182 27.7487 20.1316 26.706C20.763 25.8926 21.3196 25.7675 22.2293 26.268C24.1879 27.3525 26.1464 28.4369 28.0943 29.5214C29.4214 30.2617 30.7593 30.9917 32.1292 31.7633C34.0878 22.2639 36.0356 12.8062 37.9942 3.26508C26.7993 7.52991 15.6793 11.753 4.49509 15.997Z" fill="black"/>
</svg>
