<svg width="580" height="88" viewBox="0 0 580 88" fill="none" xmlns="http://www.w3.org/2000/svg">
<g clip-path="url(#clip0_824_2)">
<path d="M51.97 18.93C43.55 18.93 38.2 21.47 33.04 23.93C28.3 26.18 23.82 28.31 16.81 28.31C12.1726 28.3151 7.59558 27.258 3.42999 25.22C2.52999 24.83 1.63001 24.39 0.700012 23.95L0 23.62V51.95C0 78.84 32.64 87.04 32.64 87.04C32.64 87.04 65.28 78.83 65.28 51.95V21.41C61.0422 19.7414 56.5243 18.8996 51.97 18.93ZM57.12 51.93C57.12 60.05 52.97 66.93 44.79 72.52C41.0172 75.0382 36.933 77.0551 32.64 78.52C26.46 76.45 8.19 68.9 8.19 51.97V36.58C10.9822 37.4376 13.8892 37.8625 16.81 37.84C23.81 37.84 28.3 35.71 33.04 33.46C38.2 31 43.57 28.46 51.97 28.46C53.6927 28.4566 55.4136 28.5736 57.12 28.81V51.93Z" fill="#2F85E8"/>
<path d="M57.12 0.350011C55.4001 0.113704 53.666 -0.0032485 51.93 5.01188e-06C43.5 5.01188e-06 38.16 2.54001 32.99 5.00001C28.25 7.26 23.78 9.39002 16.77 9.39002C13.863 9.40243 10.9707 8.97767 8.19 8.13001C5.60958 7.28624 3.09867 6.2431 0.679993 5.01002L0.0100098 4.69001V14.26L0.679993 14.58C3.10061 15.8089 5.61119 16.8519 8.19 17.7C10.9712 18.5443 13.8635 18.9657 16.77 18.95C23.77 18.95 28.26 16.82 32.99 14.56C38.17 12.11 43.52 9.56 51.93 9.56C53.666 9.5564 55.4002 9.67335 57.12 9.91001C59.9245 10.2993 62.6735 11.0176 65.31 12.05V2.49003C62.6731 1.45877 59.9243 0.740511 57.12 0.350011Z" fill="#2F85E8"/>
<path d="M98.03 22.35H132.8L131.8 29.64V68.18H139.34L134.91 86.96H127.04L129.68 75.48H95.32V86.96H87.45V68.18H92.45L108.94 29.64H98.03V22.35ZM100.24 68.18H123.86V29.64H117.22L100.24 68.18Z" fill="#2F85E8"/>
<path d="M145.92 34.48H153.68V50.88H171.8V34.48L179.59 33.58V75.48H171.8V57.69H153.68V75.48H145.89L145.92 34.48Z" fill="#2F85E8"/>
<path d="M186.68 35.35L200.46 33.55V75.55H192.68V41.12H186.68V35.35ZM194.23 16.98L202.59 17.98L200.68 27.1L193.06 28L194.23 16.98Z" fill="#2F85E8"/>
<path d="M211.27 34.48H236.36L244.15 33.58V75.48H236.36V41.29H219.06V75.48H211.27V34.48Z" fill="#2F85E8"/>
<path d="M254.98 34.07H256.98L260.58 36.53C263.756 34.611 267.371 33.5402 271.08 33.42C282.15 33.42 289.78 40.8 289.78 52.69C289.78 66.05 278.21 76.3 262.78 76.55V87.35H254.98V34.07ZM262.77 42.85V69.35C274.9 69.19 281.96 61.97 281.96 52.71C281.96 44.51 276.22 40.57 270.31 40.57C267.637 40.6384 265.033 41.426 262.77 42.85Z" fill="#2F85E8"/>
<path d="M316.15 33.42C329.02 33.42 335.66 43.17 335.66 53.51C335.66 66.22 328.28 76.5099 315.33 76.5099C302.38 76.5099 295.73 66.75 295.73 56.42C295.73 43.75 303.11 33.42 316.15 33.42ZM303.6 55.8C303.6 62.85 307.46 69.33 315.33 69.33C323.78 69.33 327.79 63.43 327.79 54.16C327.79 47.11 324.02 40.63 316.15 40.63C307.68 40.63 303.6 46.54 303.6 55.8Z" fill="#2F85E8"/>
<path d="M386.26 33.42C399.13 33.42 405.77 43.17 405.77 53.51C405.77 66.22 398.39 76.5099 385.44 76.5099C372.49 76.5099 365.84 66.75 365.84 56.42C365.84 43.75 373.22 33.42 386.26 33.42ZM373.68 55.8C373.68 62.85 377.54 69.33 385.41 69.33C393.85 69.33 397.87 63.43 397.87 54.16C397.87 47.11 394.1 40.63 386.23 40.63C377.81 40.63 373.68 46.54 373.68 55.8Z" fill="#2F85E8"/>
<path d="M439.68 49.41C439.68 43.09 435.82 40.47 430.08 40.47C427.234 40.5161 424.446 41.276 421.97 42.68V75.48H414.18V34.07H415.98L419.83 36.37C423.264 34.6002 427.04 33.5939 430.9 33.42C442.38 33.42 447.47 39.98 447.47 48.34V75.48H439.68V49.41Z" fill="#2F85E8"/>
<path d="M457.68 22.35L465.47 21.44V63.44C465.47 67.95 466.04 69.34 468.58 69.34C470.779 69.2954 472.961 68.9385 475.06 68.28V75.16C472.674 76.0583 470.149 76.5322 467.6 76.56C460.38 76.56 457.68 72.87 457.68 64.56V22.35Z" fill="#2F85E8"/>
<path d="M478.18 35.35L491.95 33.55V75.55H484.16V41.12H478.16L478.18 35.35ZM485.72 16.98L494.08 17.98L492.2 27.16L484.57 28.06L485.72 16.98Z" fill="#2F85E8"/>
<path d="M528.28 49.41C528.28 43.09 524.43 40.47 518.69 40.47C515.841 40.5145 513.049 41.2744 510.57 42.68V75.48H502.78V34.07H504.58L508.44 36.37C511.873 34.5975 515.65 33.5911 519.51 33.42C530.99 33.42 536.07 39.98 536.07 48.34V75.48H528.28V49.41Z" fill="#2F85E8"/>
<path d="M563.54 33.42C575.18 33.42 579.54 42.42 579.54 51.87C579.541 53.1042 579.458 54.3372 579.29 55.56L551.74 57.77C552.15 64.77 556.66 69.33 564.74 69.33C568.525 69.3894 572.285 68.7101 575.81 67.33V74.22C574.17 75.29 569.58 76.52 563.02 76.52C552.44 76.52 543.83 69.38 543.83 56.76C543.86 43.26 552.55 33.42 563.54 33.42ZM552.14 51.78L571.49 49.9C571.49 44.9 569.11 40.47 562.72 40.47C557.55 40.47 553.45 44.9 552.14 51.78Z" fill="#2F85E8"/>
</g>
<defs>
<clipPath id="clip0_824_2">
<rect width="579.53" height="87.38" fill="white"/>
</clipPath>
</defs>
</svg>
